<svg width="64" height="64" viewBox="0 0 64 64" fill="red" xmlns="http://www.w3.org/2000/svg">
<path d="M32.001 0C29.3728 0.0309412 26.7771 0.583764 24.3644 1.62636C21.9517 2.66895 19.7703 4.18054 17.9467 6.07332C16.1231 7.9661 14.6938 10.2023 13.7418 12.6522C12.7898 15.102 12.334 17.7165 12.401 20.344C12.401 31.572 23.113 46.768 32.001 64C40.889 46.768 51.601 31.572 51.601 20.344C51.6679 17.7165 51.2121 15.102 50.2601 12.6522C49.3081 10.2023 47.8788 7.9661 46.0552 6.07332C44.2317 4.18054 42.0502 2.66895 39.6375 1.62636C37.2249 0.583764 34.6291 0.0309412 32.001 0ZM32.001 28.664C30.2815 28.6926 28.5925 28.2088 27.1489 27.2744C25.7053 26.3399 24.5724 24.997 23.8945 23.4166C23.2167 21.8362 23.0244 20.0898 23.3423 18.3997C23.6601 16.7097 24.4737 15.1525 25.6795 13.9264C26.8852 12.7002 28.4286 11.8607 30.113 11.5145C31.7975 11.1684 33.5469 11.3313 35.1384 11.9827C36.73 12.634 38.0917 13.7442 39.0502 15.1719C40.0088 16.5997 40.5207 18.2803 40.521 20C40.531 21.1285 40.3185 22.2479 39.8957 23.2942C39.4728 24.3405 38.8479 25.2932 38.0566 26.0978C37.2653 26.9024 36.3233 27.5432 35.2842 27.9836C34.2451 28.4239 33.1294 28.6551 32.001 28.664Z" fill="#DA4D1E"/>
</svg>
